<svg width="48" height="48" viewBox="0 0 48 48" fill="none" xmlns="http://www.w3.org/2000/svg">
<rect width="48" height="48" rx="16" fill="#DEFCAD"></rect>
<path d="M14.0116 21.9301C14.407 22.82 15.0132 23.6003 15.7776 24.2035C16.5421 24.8068 17.4419 25.215 18.3993 25.3927C19.3568 25.5705 20.3432 25.5125 21.2732 25.2238C22.2033 24.9352 23.0491 24.4244 23.7376 23.7358C24.4261 23.0471 24.9367 22.2012 25.2252 21.2711C25.5137 20.341 25.5715 19.3546 25.3936 18.3972C25.2156 17.4398 24.8073 16.54 24.2039 15.7757C23.6005 15.0113 22.8201 14.4054 21.9301 14.0101M21.2476 15.8971C20.9311 17.2171 20.4601 18.5401 19.5001 19.5001C18.5401 20.4601 17.2186 20.9311 15.8971 21.2476C13.7529 21.7611 11.8718 23.0438 10.6107 24.8523C9.34966 26.6608 8.79631 28.8693 9.05568 31.0588C9.31505 33.2483 10.3691 35.2664 12.0178 36.7302C13.6666 38.1941 15.7953 39.0018 18.0001 39.0001C29.5981 39.0001 39.0001 29.5981 39.0001 18.0001C39.0018 15.7953 38.1941 13.6666 36.7302 12.0178C35.2664 10.3691 33.2483 9.31505 31.0588 9.05568C28.8693 8.79631 26.6608 9.34966 24.8523 10.6107C23.0438 11.8718 21.7611 13.7529 21.2476 15.8971Z" stroke="black" stroke-width="2" stroke-linecap="round" stroke-linejoin="round"></path>
</svg>