<svg width="222" height="1008" viewBox="0 0 222 1008" fill="none" xmlns="http://www.w3.org/2000/svg">
<g clip-path="url(#clip0_2247_2632)">
<rect x="61" y="28" width="100" height="100" rx="26" fill="#F5F5F5"></rect>
<rect x="61" y="28" width="100" height="100" rx="20" fill="#DEFCAD"></rect>
<path d="M83.2545 72.2501C84.353 74.722 86.0367 76.8895 88.1602 78.5653C90.2836 80.241 92.7831 81.3748 95.4427 81.8685C98.1024 82.3623 100.842 82.2013 103.426 81.3994C106.009 80.5975 108.359 79.1788 110.271 77.2659C112.184 75.3529 113.602 73.0032 114.403 70.4196C115.205 67.8359 115.365 65.096 114.871 62.4365C114.377 59.777 113.243 57.2777 111.566 55.1545C109.89 53.0314 107.723 51.3481 105.25 50.2501M103.354 55.4917C102.475 59.1584 101.167 62.8334 98.5003 65.5001C95.8336 68.1667 92.1628 69.4751 88.492 70.3542C82.536 71.7806 77.3108 75.3437 73.8077 80.3674C70.3047 85.391 68.7676 91.5258 69.4881 97.6077C70.2086 103.69 73.1365 109.295 77.7163 113.362C82.2961 117.428 88.2092 119.671 94.3336 119.667C126.55 119.667 152.667 93.5501 152.667 61.3334C152.672 55.209 150.428 49.2959 146.362 44.7161C142.296 40.1362 136.69 37.2083 130.608 36.4879C124.526 35.7674 118.391 37.3045 113.368 40.8075C108.344 44.3105 104.781 49.5357 103.354 55.4917Z" stroke="black" stroke-width="2" stroke-linecap="round" stroke-linejoin="round"></path>
</g>
<path d="M89.9909 151V139.64H92.4229L97.3189 148.184V139.64H99.3989V151H96.9029L92.0709 142.696V151H89.9909ZM104.123 151.192C103.227 151.192 102.507 150.989 101.963 150.584C101.419 150.168 101.147 149.592 101.147 148.856C101.147 148.12 101.377 147.544 101.835 147.128C102.294 146.712 102.993 146.413 103.931 146.232L106.763 145.672C106.763 145.064 106.625 144.611 106.347 144.312C106.07 144.003 105.659 143.848 105.115 143.848C104.625 143.848 104.235 143.965 103.947 144.2C103.67 144.424 103.478 144.749 103.371 145.176L101.291 145.08C101.462 144.173 101.878 143.48 102.539 143C103.201 142.509 104.059 142.264 105.115 142.264C106.331 142.264 107.249 142.573 107.867 143.192C108.497 143.8 108.811 144.675 108.811 145.816V148.92C108.811 149.144 108.849 149.299 108.923 149.384C109.009 149.469 109.131 149.512 109.291 149.512H109.563V151C109.499 151.021 109.393 151.037 109.243 151.048C109.105 151.059 108.961 151.064 108.811 151.064C108.459 151.064 108.145 151.011 107.867 150.904C107.59 150.787 107.377 150.589 107.227 150.312C107.078 150.024 107.003 149.635 107.003 149.144L107.179 149.272C107.094 149.645 106.907 149.981 106.619 150.28C106.342 150.568 105.99 150.792 105.563 150.952C105.137 151.112 104.657 151.192 104.123 151.192ZM104.539 149.704C104.998 149.704 105.393 149.613 105.723 149.432C106.054 149.251 106.31 149 106.491 148.68C106.673 148.36 106.763 147.981 106.763 147.544V147.064L104.555 147.512C104.097 147.608 103.766 147.752 103.563 147.944C103.371 148.125 103.275 148.365 103.275 148.664C103.275 148.995 103.382 149.251 103.595 149.432C103.819 149.613 104.134 149.704 104.539 149.704ZM110.893 151V142.456H112.749L112.813 144.552L112.621 144.456C112.717 143.997 112.883 143.608 113.117 143.288C113.363 142.957 113.656 142.707 113.997 142.536C114.349 142.355 114.733 142.264 115.149 142.264C115.875 142.264 116.461 142.472 116.909 142.888C117.357 143.293 117.64 143.853 117.757 144.568H117.485C117.581 144.067 117.747 143.651 117.981 143.32C118.216 142.979 118.509 142.717 118.861 142.536C119.224 142.355 119.629 142.264 120.077 142.264C120.664 142.264 121.171 142.392 121.597 142.648C122.024 142.893 122.349 143.256 122.573 143.736C122.808 144.216 122.925 144.808 122.925 145.512V151H120.877V146.04C120.877 145.336 120.755 144.808 120.509 144.456C120.275 144.104 119.912 143.928 119.421 143.928C119.091 143.928 118.808 144.013 118.573 144.184C118.339 144.355 118.157 144.605 118.029 144.936C117.912 145.256 117.853 145.645 117.853 146.104V151H115.949V146.104C115.949 145.4 115.843 144.861 115.629 144.488C115.416 144.115 115.048 143.928 114.525 143.928C114.195 143.928 113.912 144.013 113.677 144.184C113.453 144.355 113.272 144.605 113.133 144.936C113.005 145.256 112.941 145.645 112.941 146.104V151H110.893ZM128.652 151.192C127.799 151.192 127.057 151.011 126.428 150.648C125.799 150.275 125.313 149.752 124.972 149.08C124.631 148.408 124.46 147.624 124.46 146.728C124.46 145.832 124.631 145.053 124.972 144.392C125.313 143.72 125.793 143.197 126.412 142.824C127.041 142.451 127.772 142.264 128.604 142.264C129.415 142.264 130.124 142.445 130.732 142.808C131.351 143.171 131.825 143.693 132.156 144.376C132.487 145.059 132.652 145.88 132.652 146.84V147.304H126.588C126.631 148.051 126.833 148.616 127.196 149C127.569 149.373 128.06 149.56 128.668 149.56C129.127 149.56 129.505 149.459 129.804 149.256C130.113 149.043 130.327 148.749 130.444 148.376L132.54 148.504C132.305 149.336 131.841 149.992 131.148 150.472C130.465 150.952 129.633 151.192 128.652 151.192ZM126.588 145.928H130.54C130.497 145.235 130.3 144.723 129.948 144.392C129.596 144.051 129.148 143.88 128.604 143.88C128.06 143.88 127.607 144.056 127.244 144.408C126.892 144.76 126.673 145.267 126.588 145.928Z" fill="#141414"></path>
<path d="M81.1808 172.994C80.6581 173.218 80.1261 173.381 79.5848 173.484C79.0434 173.587 78.4788 173.638 77.8908 173.638C76.7521 173.638 75.7768 173.437 74.9648 173.036C74.1621 172.635 73.5461 172.056 73.1168 171.3C72.6968 170.535 72.4868 169.615 72.4868 168.542C72.4868 167.581 72.6408 166.703 72.9488 165.91C73.2568 165.117 73.7001 164.435 74.2788 163.866C74.8574 163.287 75.5388 162.844 76.3228 162.536C77.1161 162.219 77.9934 162.06 78.9548 162.06C80.0654 162.06 81.0361 162.265 81.8668 162.676C82.6974 163.087 83.3414 163.665 83.7988 164.412C84.2654 165.149 84.4988 166.022 84.4988 167.03C84.4988 167.814 84.3774 168.495 84.1348 169.074C83.8921 169.643 83.5561 170.087 83.1268 170.404C82.6974 170.721 82.2028 170.88 81.6428 170.88C81.1294 170.88 80.7188 170.745 80.4108 170.474C80.1121 170.194 79.9488 169.825 79.9208 169.368L80.2148 169.312C80.1214 169.62 79.9488 169.9 79.6968 170.152C79.4541 170.395 79.1694 170.591 78.8428 170.74C78.5254 170.88 78.1988 170.95 77.8628 170.95C77.3214 170.95 76.8594 170.847 76.4768 170.642C76.1034 170.427 75.8141 170.124 75.6088 169.732C75.4128 169.34 75.3148 168.883 75.3148 168.36C75.3148 167.716 75.4361 167.137 75.6788 166.624C75.9214 166.111 76.2621 165.709 76.7008 165.42C77.1394 165.121 77.6481 164.972 78.2268 164.972C78.7494 164.972 79.1881 165.089 79.5428 165.322C79.9068 165.546 80.1354 165.849 80.2288 166.232L79.9768 166.288L80.0888 165.028H81.4888L81.2368 167.856C81.2274 168.071 81.2088 168.299 81.1808 168.542C81.1621 168.775 81.1528 168.976 81.1528 169.144C81.1528 169.331 81.2088 169.48 81.3208 169.592C81.4421 169.695 81.6054 169.746 81.8108 169.746C82.2681 169.746 82.6228 169.522 82.8748 169.074C83.1361 168.617 83.2668 167.977 83.2668 167.156C83.2668 166.297 83.1034 165.574 82.7768 164.986C82.4501 164.398 81.9601 163.955 81.3068 163.656C80.6628 163.357 79.8648 163.208 78.9128 163.208C78.1381 163.208 77.4288 163.334 76.7848 163.586C76.1501 163.838 75.6041 164.197 75.1468 164.664C74.6894 165.121 74.3348 165.672 74.0828 166.316C73.8308 166.96 73.7048 167.679 73.7048 168.472C73.7048 169.321 73.8681 170.049 74.1948 170.656C74.5308 171.253 75.0114 171.706 75.6368 172.014C76.2714 172.331 77.0368 172.49 77.9328 172.49C78.4741 172.49 78.9828 172.443 79.4588 172.35C79.9441 172.257 80.4201 172.112 80.8868 171.916L81.1808 172.994ZM78.1848 169.732C78.5581 169.732 78.8661 169.639 79.1088 169.452C79.3608 169.256 79.5474 169.004 79.6688 168.696C79.7901 168.388 79.8508 168.061 79.8508 167.716C79.8508 167.417 79.8041 167.156 79.7108 166.932C79.6174 166.699 79.4728 166.517 79.2768 166.386C79.0808 166.255 78.8288 166.19 78.5208 166.19C78.1754 166.19 77.8814 166.283 77.6388 166.47C77.4054 166.657 77.2234 166.904 77.0928 167.212C76.9621 167.511 76.8968 167.851 76.8968 168.234C76.8968 168.673 76.9948 169.032 77.1908 169.312C77.3961 169.592 77.7274 169.732 78.1848 169.732ZM86.0855 172V164.524H87.7095L87.7795 166.624L87.5695 166.54C87.6441 166.017 87.7981 165.597 88.0315 165.28C88.2648 164.963 88.5495 164.729 88.8855 164.58C89.2215 164.431 89.5901 164.356 89.9915 164.356C90.5421 164.356 91.0041 164.477 91.3775 164.72C91.7601 164.963 92.0495 165.299 92.2455 165.728C92.4415 166.148 92.5395 166.638 92.5395 167.198V172H90.7475V167.772C90.7475 167.352 90.7055 166.997 90.6215 166.708C90.5375 166.419 90.3975 166.199 90.2015 166.05C90.0148 165.891 89.7628 165.812 89.4455 165.812C88.9695 165.812 88.5868 165.98 88.2975 166.316C88.0175 166.652 87.8775 167.137 87.8775 167.772V172H86.0855ZM94.3706 172V164.524H96.1626V172H94.3706ZM94.3426 163.53V161.934H96.2046V163.53H94.3426ZM101.242 172.168C100.495 172.168 99.8463 172.009 99.2957 171.692C98.745 171.365 98.3157 170.908 98.0077 170.32C97.709 169.732 97.5597 169.046 97.5597 168.262C97.5597 167.478 97.709 166.797 98.0077 166.218C98.3157 165.63 98.745 165.173 99.2957 164.846C99.8463 164.519 100.495 164.356 101.242 164.356C101.876 164.356 102.441 164.468 102.936 164.692C103.43 164.916 103.832 165.238 104.14 165.658C104.457 166.069 104.653 166.573 104.728 167.17L102.88 167.268C102.805 166.792 102.618 166.433 102.32 166.19C102.03 165.938 101.671 165.812 101.242 165.812C100.663 165.812 100.215 166.031 99.8977 166.47C99.5803 166.899 99.4217 167.497 99.4217 168.262C99.4217 169.037 99.5803 169.639 99.8977 170.068C100.215 170.497 100.663 170.712 101.242 170.712C101.68 170.712 102.044 170.586 102.334 170.334C102.632 170.082 102.814 169.69 102.88 169.158L104.728 169.242C104.653 169.839 104.462 170.357 104.154 170.796C103.846 171.235 103.444 171.575 102.95 171.818C102.455 172.051 101.886 172.168 101.242 172.168ZM105.978 172V162.06H107.77V167.898L110.836 164.524H113.048L110.122 167.632L113.146 172H111.13L108.946 168.696L107.77 169.942V172H105.978ZM114.181 172V164.524H115.805L115.875 166.624L115.665 166.54C115.74 166.017 115.894 165.597 116.127 165.28C116.361 164.963 116.645 164.729 116.981 164.58C117.317 164.431 117.686 164.356 118.087 164.356C118.638 164.356 119.1 164.477 119.473 164.72C119.856 164.963 120.145 165.299 120.341 165.728C120.537 166.148 120.635 166.638 120.635 167.198V172H118.843V167.772C118.843 167.352 118.801 166.997 118.717 166.708C118.633 166.419 118.493 166.199 118.297 166.05C118.111 165.891 117.859 165.812 117.541 165.812C117.065 165.812 116.683 165.98 116.393 166.316C116.113 166.652 115.973 167.137 115.973 167.772V172H114.181ZM124.595 172.168C123.811 172.168 123.181 171.991 122.705 171.636C122.229 171.272 121.991 170.768 121.991 170.124C121.991 169.48 122.192 168.976 122.593 168.612C122.995 168.248 123.606 167.987 124.427 167.828L126.905 167.338C126.905 166.806 126.784 166.409 126.541 166.148C126.299 165.877 125.939 165.742 125.463 165.742C125.034 165.742 124.693 165.845 124.441 166.05C124.199 166.246 124.031 166.531 123.937 166.904L122.117 166.82C122.267 166.027 122.631 165.42 123.209 165C123.788 164.571 124.539 164.356 125.463 164.356C126.527 164.356 127.33 164.627 127.871 165.168C128.422 165.7 128.697 166.465 128.697 167.464V170.18C128.697 170.376 128.73 170.511 128.795 170.586C128.87 170.661 128.977 170.698 129.117 170.698H129.355V172C129.299 172.019 129.206 172.033 129.075 172.042C128.954 172.051 128.828 172.056 128.697 172.056C128.389 172.056 128.114 172.009 127.871 171.916C127.629 171.813 127.442 171.641 127.311 171.398C127.181 171.146 127.115 170.805 127.115 170.376L127.269 170.488C127.195 170.815 127.031 171.109 126.779 171.37C126.537 171.622 126.229 171.818 125.855 171.958C125.482 172.098 125.062 172.168 124.595 172.168ZM124.959 170.866C125.361 170.866 125.706 170.787 125.995 170.628C126.285 170.469 126.509 170.25 126.667 169.97C126.826 169.69 126.905 169.359 126.905 168.976V168.556L124.973 168.948C124.572 169.032 124.283 169.158 124.105 169.326C123.937 169.485 123.853 169.695 123.853 169.956C123.853 170.245 123.947 170.469 124.133 170.628C124.329 170.787 124.605 170.866 124.959 170.866ZM130.519 172V164.524H132.143L132.199 166.358L132.031 166.274C132.115 165.873 132.26 165.532 132.465 165.252C132.68 164.963 132.936 164.743 133.235 164.594C133.543 164.435 133.879 164.356 134.243 164.356C134.878 164.356 135.391 164.538 135.783 164.902C136.175 165.257 136.422 165.747 136.525 166.372H136.287C136.371 165.933 136.516 165.569 136.721 165.28C136.926 164.981 137.183 164.753 137.491 164.594C137.808 164.435 138.163 164.356 138.555 164.356C139.068 164.356 139.512 164.468 139.885 164.692C140.258 164.907 140.543 165.224 140.739 165.644C140.944 166.064 141.047 166.582 141.047 167.198V172H139.255V167.66C139.255 167.044 139.148 166.582 138.933 166.274C138.728 165.966 138.41 165.812 137.981 165.812C137.692 165.812 137.444 165.887 137.239 166.036C137.034 166.185 136.875 166.405 136.763 166.694C136.66 166.974 136.609 167.315 136.609 167.716V172H134.943V167.716C134.943 167.1 134.85 166.629 134.663 166.302C134.476 165.975 134.154 165.812 133.697 165.812C133.408 165.812 133.16 165.887 132.955 166.036C132.759 166.185 132.6 166.405 132.479 166.694C132.367 166.974 132.311 167.315 132.311 167.716V172H130.519ZM146.058 172.168C145.311 172.168 144.662 172.009 144.112 171.692C143.561 171.365 143.136 170.908 142.838 170.32C142.539 169.732 142.39 169.046 142.39 168.262C142.39 167.478 142.539 166.797 142.838 166.218C143.136 165.63 143.556 165.173 144.098 164.846C144.648 164.519 145.288 164.356 146.016 164.356C146.725 164.356 147.346 164.515 147.878 164.832C148.419 165.149 148.834 165.607 149.124 166.204C149.413 166.801 149.558 167.52 149.558 168.36V168.766H144.252C144.289 169.419 144.466 169.914 144.784 170.25C145.11 170.577 145.54 170.74 146.072 170.74C146.473 170.74 146.804 170.651 147.066 170.474C147.336 170.287 147.523 170.031 147.626 169.704L149.46 169.816C149.254 170.544 148.848 171.118 148.242 171.538C147.644 171.958 146.916 172.168 146.058 172.168ZM144.252 167.562H147.71C147.672 166.955 147.5 166.507 147.192 166.218C146.884 165.919 146.492 165.77 146.016 165.77C145.54 165.77 145.143 165.924 144.826 166.232C144.518 166.54 144.326 166.983 144.252 167.562Z" fill="#404040"></path>
<g filter="url(#filter0_d_2247_2632)">
<rect x="8" y="200" width="206" height="40" rx="14" fill="#D3D3D3" fill-opacity="0.4" shape-rendering="crispEdges"></rect>
<rect x="8.5" y="200.5" width="205" height="39" rx="13.5" stroke="#CFCFCF" shape-rendering="crispEdges"></rect>
<path d="M35.8337 227.5V225.833C35.8337 224.949 35.4825 224.101 34.8573 223.476C34.2322 222.851 33.3844 222.5 32.5003 222.5H27.5003C26.6163 222.5 25.7684 222.851 25.1433 223.476C24.5182 224.101 24.167 224.949 24.167 225.833V227.5M33.3337 215.833C33.3337 217.674 31.8413 219.167 30.0003 219.167C28.1594 219.167 26.667 217.674 26.667 215.833C26.667 213.992 28.1594 212.5 30.0003 212.5C31.8413 212.5 33.3337 213.992 33.3337 215.833Z" stroke="#141414" stroke-width="2" stroke-linecap="round" stroke-linejoin="round"></path>
<path d="M53.334 224.724C52.354 224.724 51.5093 224.519 50.8 224.108C50.0907 223.688 49.5447 223.091 49.162 222.316C48.7887 221.541 48.602 220.617 48.602 219.544C48.602 218.471 48.7887 217.547 49.162 216.772C49.5447 215.988 50.0907 215.386 50.8 214.966C51.5093 214.546 52.354 214.336 53.334 214.336C54.3327 214.336 55.182 214.546 55.882 214.966C56.5913 215.386 57.1327 215.988 57.506 216.772C57.8887 217.547 58.08 218.471 58.08 219.544C58.08 220.617 57.8887 221.541 57.506 222.316C57.1327 223.091 56.5913 223.688 55.882 224.108C55.182 224.519 54.3327 224.724 53.334 224.724ZM53.334 223.142C53.9407 223.142 54.454 223.002 54.874 222.722C55.3033 222.433 55.63 222.022 55.854 221.49C56.0873 220.949 56.204 220.3 56.204 219.544C56.204 218.788 56.0873 218.139 55.854 217.598C55.63 217.057 55.3033 216.641 54.874 216.352C54.454 216.063 53.9407 215.918 53.334 215.918C52.746 215.918 52.2373 216.063 51.808 216.352C51.3787 216.641 51.0473 217.057 50.814 217.598C50.59 218.139 50.478 218.788 50.478 219.544C50.478 220.3 50.59 220.949 50.814 221.49C51.0473 222.022 51.3787 222.433 51.808 222.722C52.2373 223.002 52.746 223.142 53.334 223.142ZM63.0288 224.668C62.2821 224.668 61.6334 224.509 61.0828 224.192C60.5321 223.865 60.1028 223.408 59.7948 222.82C59.4961 222.232 59.3468 221.546 59.3468 220.762C59.3468 219.978 59.4961 219.297 59.7948 218.718C60.1028 218.13 60.5321 217.673 61.0828 217.346C61.6334 217.019 62.2821 216.856 63.0288 216.856C63.6634 216.856 64.2281 216.968 64.7228 217.192C65.2174 217.416 65.6188 217.738 65.9268 218.158C66.2441 218.569 66.4401 219.073 66.5148 219.67L64.6668 219.768C64.5921 219.292 64.4054 218.933 64.1068 218.69C63.8174 218.438 63.4581 218.312 63.0288 218.312C62.4501 218.312 62.0021 218.531 61.6848 218.97C61.3674 219.399 61.2088 219.997 61.2088 220.762C61.2088 221.537 61.3674 222.139 61.6848 222.568C62.0021 222.997 62.4501 223.212 63.0288 223.212C63.4674 223.212 63.8314 223.086 64.1208 222.834C64.4194 222.582 64.6014 222.19 64.6668 221.658L66.5148 221.742C66.4401 222.339 66.2488 222.857 65.9408 223.296C65.6328 223.735 65.2314 224.075 64.7368 224.318C64.2421 224.551 63.6728 224.668 63.0288 224.668ZM67.7652 224.5V217.024H69.5572V224.5H67.7652ZM72.3152 224.5V217.024H74.1072V224.5H72.3152ZM68.2972 221.462V220.09H73.4632V221.462H68.2972ZM79.1889 224.668C78.4516 224.668 77.8029 224.509 77.2429 224.192C76.6923 223.865 76.2629 223.408 75.9549 222.82C75.6563 222.232 75.5069 221.546 75.5069 220.762C75.5069 219.969 75.6563 219.283 75.9549 218.704C76.2629 218.116 76.6923 217.663 77.2429 217.346C77.8029 217.019 78.4516 216.856 79.1889 216.856C79.9263 216.856 80.5703 217.019 81.1209 217.346C81.6716 217.663 82.0963 218.116 82.3949 218.704C82.7029 219.283 82.8569 219.969 82.8569 220.762C82.8569 221.546 82.7029 222.232 82.3949 222.82C82.0963 223.408 81.6716 223.865 81.1209 224.192C80.5703 224.509 79.9263 224.668 79.1889 224.668ZM79.1889 223.212C79.7676 223.212 80.2109 222.997 80.5189 222.568C80.8363 222.139 80.9949 221.537 80.9949 220.762C80.9949 219.997 80.8363 219.399 80.5189 218.97C80.2109 218.531 79.7676 218.312 79.1889 218.312C78.6103 218.312 78.1623 218.531 77.8449 218.97C77.5276 219.399 77.3689 219.997 77.3689 220.762C77.3689 221.537 77.5276 222.139 77.8449 222.568C78.1623 222.997 78.6103 223.212 79.1889 223.212ZM84.2398 224.5V217.024H87.5438C88.5424 217.024 89.3078 217.206 89.8398 217.57C90.3811 217.925 90.6518 218.433 90.6518 219.096C90.6518 219.563 90.4838 219.931 90.1478 220.202C89.8211 220.473 89.3591 220.622 88.7618 220.65V220.622C89.4524 220.65 89.9891 220.818 90.3718 221.126C90.7638 221.434 90.9598 221.854 90.9598 222.386C90.9598 223.049 90.6984 223.567 90.1758 223.94C89.6624 224.313 88.9251 224.5 87.9638 224.5H84.2398ZM86.0598 223.156H87.8658C88.2484 223.156 88.5518 223.077 88.7758 222.918C88.9998 222.75 89.1118 222.531 89.1118 222.26C89.1118 221.961 88.9998 221.728 88.7758 221.56C88.5518 221.383 88.2484 221.294 87.8658 221.294H86.0598V223.156ZM86.0598 220.118H87.5158C87.9078 220.118 88.2204 220.039 88.4538 219.88C88.6871 219.712 88.8038 219.493 88.8038 219.222C88.8038 218.961 88.6871 218.755 88.4538 218.606C88.2204 218.447 87.9078 218.368 87.5158 218.368H86.0598V220.118ZM92.648 224.5V217.024H94.44V224.5H92.648ZM97.198 224.5V217.024H98.99V224.5H97.198ZM93.18 221.462V220.09H98.346V221.462H93.18ZM109.024 224.5V217.024H110.83V224.5H109.024ZM100.96 224.5V217.024H102.752V219.74H104.432C105.543 219.74 106.388 219.945 106.966 220.356C107.545 220.767 107.834 221.364 107.834 222.148C107.834 222.913 107.545 223.497 106.966 223.898C106.388 224.299 105.543 224.5 104.432 224.5H100.96ZM102.752 223.184H104.306C104.866 223.184 105.286 223.1 105.566 222.932C105.846 222.755 105.986 222.493 105.986 222.148C105.986 221.784 105.846 221.518 105.566 221.35C105.286 221.173 104.866 221.084 104.306 221.084H102.752V223.184ZM115.884 224.668C115.137 224.668 114.489 224.509 113.938 224.192C113.387 223.865 112.963 223.408 112.664 222.82C112.365 222.232 112.216 221.546 112.216 220.762C112.216 219.978 112.365 219.297 112.664 218.718C112.963 218.13 113.383 217.673 113.924 217.346C114.475 217.019 115.114 216.856 115.842 216.856C116.551 216.856 117.172 217.015 117.704 217.332C118.245 217.649 118.661 218.107 118.95 218.704C119.239 219.301 119.384 220.02 119.384 220.86V221.266H114.078C114.115 221.919 114.293 222.414 114.61 222.75C114.937 223.077 115.366 223.24 115.898 223.24C116.299 223.24 116.631 223.151 116.892 222.974C117.163 222.787 117.349 222.531 117.452 222.204L119.286 222.316C119.081 223.044 118.675 223.618 118.068 224.038C117.471 224.458 116.743 224.668 115.884 224.668ZM114.078 220.062H117.536C117.499 219.455 117.326 219.007 117.018 218.718C116.71 218.419 116.318 218.27 115.842 218.27C115.366 218.27 114.969 218.424 114.652 218.732C114.344 219.04 114.153 219.483 114.078 220.062Z" fill="#141414"></path>
</g>
<g filter="url(#filter1_d_2247_2632)">
<rect x="8" y="244" width="206" height="40" rx="14" fill="#D3D3D3" fill-opacity="0.25" shape-rendering="crispEdges"></rect>
<path d="M36.6663 264.833C36.6663 269 33.7497 271.083 30.283 272.292C30.1015 272.353 29.9043 272.35 29.7247 272.283C26.2497 271.083 23.333 269 23.333 264.833V259C23.333 258.779 23.4208 258.567 23.5771 258.411C23.7334 258.254 23.9453 258.167 24.1663 258.167C25.833 258.167 27.9163 257.167 29.3663 255.9C29.5429 255.749 29.7675 255.666 29.9997 255.666C30.2319 255.666 30.4565 255.749 30.633 255.9C32.0913 257.175 34.1663 258.167 35.833 258.167C36.054 258.167 36.266 258.254 36.4223 258.411C36.5785 258.567 36.6663 258.779 36.6663 259V264.833Z" stroke="#141414" stroke-width="2" stroke-linecap="round" stroke-linejoin="round"></path>
<path d="M55.028 268.5L50.842 263.53H53.012L57.198 268.5H55.028ZM49.12 268.5V258.56H50.94V268.5H49.12ZM50.842 263.53L54.888 258.56H57.058L53.012 263.53H50.842ZM60.8823 268.668C60.145 268.668 59.4963 268.509 58.9363 268.192C58.3856 267.865 57.9563 267.408 57.6483 266.82C57.3496 266.232 57.2003 265.546 57.2003 264.762C57.2003 263.969 57.3496 263.283 57.6483 262.704C57.9563 262.116 58.3856 261.663 58.9363 261.346C59.4963 261.019 60.145 260.856 60.8823 260.856C61.6196 260.856 62.2636 261.019 62.8143 261.346C63.365 261.663 63.7896 262.116 64.0883 262.704C64.3963 263.283 64.5503 263.969 64.5503 264.762C64.5503 265.546 64.3963 266.232 64.0883 266.82C63.7896 267.408 63.365 267.865 62.8143 268.192C62.2636 268.509 61.6196 268.668 60.8823 268.668ZM60.8823 267.212C61.461 267.212 61.9043 266.997 62.2123 266.568C62.5296 266.139 62.6883 265.537 62.6883 264.762C62.6883 263.997 62.5296 263.399 62.2123 262.97C61.9043 262.531 61.461 262.312 60.8823 262.312C60.3036 262.312 59.8556 262.531 59.5383 262.97C59.221 263.399 59.0623 263.997 59.0623 264.762C59.0623 265.537 59.221 266.139 59.5383 266.568C59.8556 266.997 60.3036 267.212 60.8823 267.212ZM65.9331 268.5V261.024H67.7251V268.5H65.9331ZM70.4831 268.5V261.024H72.2751V268.5H70.4831ZM66.4651 265.462V264.09H71.6311V265.462H66.4651ZM77.9869 268.178C77.1189 268.178 76.3629 268.038 75.7189 267.758C75.0749 267.469 74.5709 267.063 74.2069 266.54C73.8522 266.017 73.6749 265.411 73.6749 264.72C73.6749 264.02 73.8522 263.413 74.2069 262.9C74.5709 262.377 75.0749 261.976 75.7189 261.696C76.3629 261.407 77.1189 261.262 77.9869 261.262C78.8736 261.262 79.6389 261.407 80.2829 261.696C80.9269 261.976 81.4262 262.377 81.7809 262.9C82.1449 263.413 82.3269 264.02 82.3269 264.72C82.3269 265.411 82.1449 266.017 81.7809 266.54C81.4262 267.063 80.9269 267.469 80.2829 267.758C79.6389 268.038 78.8736 268.178 77.9869 268.178ZM78.0009 266.694C78.7662 266.694 79.3729 266.517 79.8209 266.162C80.2689 265.807 80.4929 265.327 80.4929 264.72C80.4929 264.113 80.2689 263.633 79.8209 263.278C79.3729 262.923 78.7662 262.746 78.0009 262.746C77.2262 262.746 76.6149 262.923 76.1669 263.278C75.7282 263.633 75.5089 264.113 75.5089 264.72C75.5089 265.327 75.7282 265.807 76.1669 266.162C76.6149 266.517 77.2262 266.694 78.0009 266.694ZM77.1749 270.614V258.56H78.8409V270.614H77.1749ZM83.7202 268.5V261.024H85.5122V265.854L88.2282 261.024H89.9922V268.5H88.2002V263.796L85.5682 268.5H83.7202ZM91.352 268.052V267.114H91.94C92.2293 267.114 92.4533 267.007 92.612 266.792C92.78 266.577 92.8967 266.237 92.962 265.77L93.634 261.024H99.248V268.5H97.442V262.41H95.118L94.642 265.854C94.5487 266.61 94.3107 267.165 93.928 267.52C93.5453 267.875 93.0133 268.052 92.332 268.052H91.352ZM91.352 270.6V267.548H93.144V270.6H91.352ZM91.436 268.5V267.114H99.738V268.5H91.436ZM98.646 270.6V267.114H100.452V270.6H98.646ZM105.042 268.668C104.295 268.668 103.647 268.509 103.096 268.192C102.545 267.865 102.121 267.408 101.822 266.82C101.523 266.232 101.374 265.546 101.374 264.762C101.374 263.978 101.523 263.297 101.822 262.718C102.121 262.13 102.541 261.673 103.082 261.346C103.633 261.019 104.272 260.856 105 260.856C105.709 260.856 106.33 261.015 106.862 261.332C107.403 261.649 107.819 262.107 108.108 262.704C108.397 263.301 108.542 264.02 108.542 264.86V265.266H103.236C103.273 265.919 103.451 266.414 103.768 266.75C104.095 267.077 104.524 267.24 105.056 267.24C105.457 267.24 105.789 267.151 106.05 266.974C106.321 266.787 106.507 266.531 106.61 266.204L108.444 266.316C108.239 267.044 107.833 267.618 107.226 268.038C106.629 268.458 105.901 268.668 105.042 268.668ZM103.236 264.062H106.694C106.657 263.455 106.484 263.007 106.176 262.718C105.868 262.419 105.476 262.27 105 262.27C104.524 262.27 104.127 262.424 103.81 262.732C103.502 263.04 103.311 263.483 103.236 264.062ZM109.943 268.5V261.024H111.735V268.5H109.943ZM114.493 268.5V261.024H116.285V268.5H114.493ZM110.475 265.462V264.09H115.641V265.462H110.475ZM124.317 270.614V267.114H126.109V270.614H124.317ZM122.945 268.5V267.114H124.597V268.5H122.945ZM118.255 261.024H120.047V267.114H122.931V261.024H124.737V268.5H118.255V261.024ZM127.949 268.5V261.024H129.741V265.854L132.457 261.024H134.221V268.5H132.429V263.796L129.797 268.5H127.949ZM138.349 268.668C137.565 268.668 136.935 268.491 136.459 268.136C135.983 267.772 135.745 267.268 135.745 266.624C135.745 265.98 135.946 265.476 136.347 265.112C136.749 264.748 137.36 264.487 138.181 264.328L140.659 263.838C140.659 263.306 140.538 262.909 140.295 262.648C140.053 262.377 139.693 262.242 139.217 262.242C138.788 262.242 138.447 262.345 138.195 262.55C137.953 262.746 137.785 263.031 137.691 263.404L135.871 263.32C136.021 262.527 136.385 261.92 136.963 261.5C137.542 261.071 138.293 260.856 139.217 260.856C140.281 260.856 141.084 261.127 141.625 261.668C142.176 262.2 142.451 262.965 142.451 263.964V266.68C142.451 266.876 142.484 267.011 142.549 267.086C142.624 267.161 142.731 267.198 142.871 267.198H143.109V268.5C143.053 268.519 142.96 268.533 142.829 268.542C142.708 268.551 142.582 268.556 142.451 268.556C142.143 268.556 141.868 268.509 141.625 268.416C141.383 268.313 141.196 268.141 141.065 267.898C140.935 267.646 140.869 267.305 140.869 266.876L141.023 266.988C140.949 267.315 140.785 267.609 140.533 267.87C140.291 268.122 139.983 268.318 139.609 268.458C139.236 268.598 138.816 268.668 138.349 268.668ZM138.713 267.366C139.115 267.366 139.46 267.287 139.749 267.128C140.039 266.969 140.263 266.75 140.421 266.47C140.58 266.19 140.659 265.859 140.659 265.476V265.056L138.727 265.448C138.326 265.532 138.037 265.658 137.859 265.826C137.691 265.985 137.607 266.195 137.607 266.456C137.607 266.745 137.701 266.969 137.887 267.128C138.083 267.287 138.359 267.366 138.713 267.366ZM144.02 268.5V267.016H144.552C144.795 267.016 144.982 266.932 145.112 266.764C145.243 266.587 145.327 266.335 145.364 266.008L145.896 261.024H151.846V268.5H150.04V262.41H147.534L147.114 266.428C147.049 267.109 146.853 267.627 146.526 267.982C146.209 268.327 145.77 268.5 145.21 268.5H144.02ZM153.802 268.5V261.024H155.594V263.74H157.274C158.385 263.74 159.23 263.945 159.808 264.356C160.387 264.767 160.676 265.364 160.676 266.148C160.676 266.913 160.387 267.497 159.808 267.898C159.23 268.299 158.385 268.5 157.274 268.5H153.802ZM155.594 267.184H157.148C157.708 267.184 158.128 267.1 158.408 266.932C158.688 266.755 158.828 266.493 158.828 266.148C158.828 265.784 158.688 265.518 158.408 265.35C158.128 265.173 157.708 265.084 157.148 265.084H155.594V267.184ZM162.197 268.5V261.024H163.989V268.5H162.197ZM166.747 268.5V261.024H168.539V268.5H166.747ZM162.729 265.462V264.09H167.895V265.462H162.729ZM173.621 268.668C172.883 268.668 172.235 268.509 171.675 268.192C171.124 267.865 170.695 267.408 170.387 266.82C170.088 266.232 169.939 265.546 169.939 264.762C169.939 263.969 170.088 263.283 170.387 262.704C170.695 262.116 171.124 261.663 171.675 261.346C172.235 261.019 172.883 260.856 173.621 260.856C174.358 260.856 175.002 261.019 175.553 261.346C176.103 261.663 176.528 262.116 176.827 262.704C177.135 263.283 177.289 263.969 177.289 264.762C177.289 265.546 177.135 266.232 176.827 266.82C176.528 267.408 176.103 267.865 175.553 268.192C175.002 268.509 174.358 268.668 173.621 268.668ZM173.621 267.212C174.199 267.212 174.643 266.997 174.951 266.568C175.268 266.139 175.427 265.537 175.427 264.762C175.427 263.997 175.268 263.399 174.951 262.97C174.643 262.531 174.199 262.312 173.621 262.312C173.042 262.312 172.594 262.531 172.277 262.97C171.959 263.399 171.801 263.997 171.801 264.762C171.801 265.537 171.959 266.139 172.277 266.568C172.594 266.997 173.042 267.212 173.621 267.212ZM181.919 268.668C181.173 268.668 180.524 268.509 179.973 268.192C179.423 267.865 178.993 267.408 178.685 266.82C178.387 266.232 178.237 265.546 178.237 264.762C178.237 263.978 178.387 263.297 178.685 262.718C178.993 262.13 179.423 261.673 179.973 261.346C180.524 261.019 181.173 260.856 181.919 260.856C182.554 260.856 183.119 260.968 183.613 261.192C184.108 261.416 184.509 261.738 184.817 262.158C185.135 262.569 185.331 263.073 185.405 263.67L183.557 263.768C183.483 263.292 183.296 262.933 182.997 262.69C182.708 262.438 182.349 262.312 181.919 262.312C181.341 262.312 180.893 262.531 180.575 262.97C180.258 263.399 180.099 263.997 180.099 264.762C180.099 265.537 180.258 266.139 180.575 266.568C180.893 266.997 181.341 267.212 181.919 267.212C182.358 267.212 182.722 267.086 183.011 266.834C183.31 266.582 183.492 266.19 183.557 265.658L185.405 265.742C185.331 266.339 185.139 266.857 184.831 267.296C184.523 267.735 184.122 268.075 183.627 268.318C183.133 268.551 182.563 268.668 181.919 268.668ZM188.566 268.5V262.41H185.99V261.024H192.948V262.41H190.372V268.5H188.566ZM194.025 268.5V261.024H195.817V263.74H197.497C198.608 263.74 199.452 263.945 200.031 264.356C200.61 264.767 200.899 265.364 200.899 266.148C200.899 266.913 200.61 267.497 200.031 267.898C199.452 268.299 198.608 268.5 197.497 268.5H194.025ZM195.817 267.184H197.371C197.931 267.184 198.351 267.1 198.631 266.932C198.911 266.755 199.051 266.493 199.051 266.148C199.051 265.784 198.911 265.518 198.631 265.35C198.351 265.173 197.931 265.084 197.371 265.084H195.817V267.184Z" fill="#141414"></path>
</g>
<g filter="url(#filter2_d_2247_2632)">
<g clip-path="url(#clip1_2247_2632)">
<path d="M27.4997 308L29.1663 309.667L32.4997 306.333M23.208 305.183C23.0864 304.635 23.105 304.066 23.2623 303.527C23.4196 302.988 23.7103 302.498 24.1076 302.101C24.5048 301.705 24.9958 301.415 25.5348 301.259C26.0739 301.103 26.6437 301.086 27.1913 301.208C27.4928 300.737 27.908 300.349 28.3988 300.08C28.8896 299.812 29.4401 299.671 29.9997 299.671C30.5592 299.671 31.1098 299.812 31.6005 300.08C32.0913 300.349 32.5066 300.737 32.808 301.208C33.3565 301.085 33.9272 301.102 34.4672 301.259C35.0071 301.415 35.4987 301.706 35.8962 302.103C36.2937 302.501 36.5842 302.993 36.7407 303.533C36.8972 304.072 36.9147 304.643 36.7913 305.192C37.2628 305.493 37.6507 305.908 37.9194 306.399C38.1882 306.89 38.329 307.44 38.329 308C38.329 308.56 38.1882 309.11 37.9194 309.601C37.6507 310.092 37.2628 310.507 36.7913 310.808C36.9141 311.356 36.8966 311.926 36.7405 312.465C36.5844 313.004 36.2947 313.495 35.8982 313.892C35.5018 314.289 35.0115 314.58 34.4727 314.737C33.934 314.895 33.3642 314.913 32.8163 314.792C32.5153 315.265 32.0997 315.655 31.6081 315.924C31.1165 316.194 30.5647 316.336 30.0038 316.336C29.443 316.336 28.8912 316.194 28.3996 315.924C27.9079 315.655 27.4924 315.265 27.1913 314.792C26.6437 314.914 26.0739 314.897 25.5348 314.741C24.9958 314.585 24.5048 314.295 24.1076 313.899C23.7103 313.502 23.4196 313.012 23.2623 312.473C23.105 311.934 23.0864 311.365 23.208 310.817C22.733 310.516 22.3417 310.1 22.0705 309.608C21.7994 309.115 21.6572 308.562 21.6572 308C21.6572 307.438 21.7994 306.885 22.0705 306.392C22.3417 305.9 22.733 305.484 23.208 305.183Z" stroke="#404040" stroke-width="2" stroke-linecap="round" stroke-linejoin="round"></path>
</g>
<path d="M49.12 312.5V302.56H52.844C54.0573 302.56 54.9767 302.775 55.602 303.204C56.2367 303.633 56.554 304.315 56.554 305.248C56.554 305.668 56.4653 306.037 56.288 306.354C56.12 306.662 55.868 306.905 55.532 307.082C55.2053 307.259 54.8087 307.357 54.342 307.376L54.328 307.348C55.1773 307.376 55.8307 307.609 56.288 308.048C56.7453 308.477 56.974 309.051 56.974 309.77C56.974 310.685 56.6567 311.371 56.022 311.828C55.3967 312.276 54.5053 312.5 53.348 312.5H49.12ZM50.94 310.96H53.264C53.8333 310.96 54.2813 310.843 54.608 310.61C54.944 310.377 55.112 310.031 55.112 309.574C55.112 309.117 54.9487 308.767 54.622 308.524C54.2953 308.281 53.8427 308.16 53.264 308.16H50.94V310.96ZM50.94 306.732H52.788C53.3853 306.732 53.852 306.62 54.188 306.396C54.524 306.172 54.692 305.845 54.692 305.416C54.692 304.968 54.5287 304.637 54.202 304.422C53.8753 304.207 53.404 304.1 52.788 304.1H50.94V306.732ZM61.88 312.668C61.1333 312.668 60.4847 312.509 59.934 312.192C59.3833 311.865 58.9587 311.408 58.66 310.82C58.3613 310.232 58.212 309.546 58.212 308.762C58.212 307.978 58.3613 307.297 58.66 306.718C58.9587 306.13 59.3787 305.673 59.92 305.346C60.4707 305.019 61.11 304.856 61.838 304.856C62.5473 304.856 63.168 305.015 63.7 305.332C64.2413 305.649 64.6567 306.107 64.946 306.704C65.2353 307.301 65.38 308.02 65.38 308.86V309.266H60.074C60.1113 309.919 60.2887 310.414 60.606 310.75C60.9327 311.077 61.362 311.24 61.894 311.24C62.2953 311.24 62.6267 311.151 62.888 310.974C63.1587 310.787 63.3453 310.531 63.448 310.204L65.282 310.316C65.0767 311.044 64.6707 311.618 64.064 312.038C63.4667 312.458 62.7387 312.668 61.88 312.668ZM60.074 308.062H63.532C63.4947 307.455 63.322 307.007 63.014 306.718C62.706 306.419 62.314 306.27 61.838 306.27C61.362 306.27 60.9653 306.424 60.648 306.732C60.34 307.04 60.1487 307.483 60.074 308.062ZM66.7808 314.6V305.024H68.5028L68.5448 306.62L68.3628 306.536C68.5494 305.985 68.8528 305.57 69.2728 305.29C69.7021 305.001 70.2014 304.856 70.7708 304.856C71.4801 304.856 72.0681 305.033 72.5348 305.388C73.0108 305.743 73.3654 306.214 73.5988 306.802C73.8321 307.39 73.9488 308.043 73.9488 308.762C73.9488 309.481 73.8274 310.134 73.5848 310.722C73.3514 311.31 72.9968 311.781 72.5208 312.136C72.0541 312.491 71.4661 312.668 70.7568 312.668C70.3834 312.668 70.0334 312.603 69.7068 312.472C69.3894 312.341 69.1141 312.155 68.8808 311.912C68.6568 311.669 68.4981 311.385 68.4048 311.058L68.5728 310.918V314.6H66.7808ZM70.3368 311.212C70.8781 311.212 71.3028 310.997 71.6108 310.568C71.9281 310.129 72.0868 309.527 72.0868 308.762C72.0868 307.997 71.9281 307.399 71.6108 306.97C71.3028 306.531 70.8781 306.312 70.3368 306.312C69.9728 306.312 69.6601 306.405 69.3988 306.592C69.1374 306.769 68.9321 307.04 68.7828 307.404C68.6428 307.768 68.5728 308.221 68.5728 308.762C68.5728 309.303 68.6428 309.756 68.7828 310.12C68.9228 310.484 69.1234 310.759 69.3848 310.946C69.6554 311.123 69.9728 311.212 70.3368 311.212ZM75.3394 312.5V305.024H77.1314V309.854L79.8474 305.024H81.6114V312.5H79.8194V307.796L77.1874 312.5H75.3394ZM87.3111 312.178C86.4431 312.178 85.6871 312.038 85.0431 311.758C84.3991 311.469 83.8951 311.063 83.5311 310.54C83.1765 310.017 82.9991 309.411 82.9991 308.72C82.9991 308.02 83.1765 307.413 83.5311 306.9C83.8951 306.377 84.3991 305.976 85.0431 305.696C85.6871 305.407 86.4431 305.262 87.3111 305.262C88.1978 305.262 88.9631 305.407 89.6071 305.696C90.2511 305.976 90.7505 306.377 91.1051 306.9C91.4691 307.413 91.6511 308.02 91.6511 308.72C91.6511 309.411 91.4691 310.017 91.1051 310.54C90.7505 311.063 90.2511 311.469 89.6071 311.758C88.9631 312.038 88.1978 312.178 87.3111 312.178ZM87.3251 310.694C88.0905 310.694 88.6971 310.517 89.1451 310.162C89.5931 309.807 89.8171 309.327 89.8171 308.72C89.8171 308.113 89.5931 307.633 89.1451 307.278C88.6971 306.923 88.0905 306.746 87.3251 306.746C86.5505 306.746 85.9391 306.923 85.4911 307.278C85.0525 307.633 84.8331 308.113 84.8331 308.72C84.8331 309.327 85.0525 309.807 85.4911 310.162C85.9391 310.517 86.5505 310.694 87.3251 310.694ZM86.4991 314.614V302.56H88.1651V314.614H86.4991ZM93.0445 312.5V305.024H94.8365V309.854L97.5525 305.024H99.3165V312.5H97.5245V307.796L94.8925 312.5H93.0445ZM106.259 312.5L102.983 308.762H105.125L108.485 312.5H106.259ZM101.275 312.5V305.024H103.095V312.5H101.275ZM102.983 308.762L106.119 305.024H108.317L105.125 308.762H102.983ZM111.566 312.668C110.782 312.668 110.152 312.491 109.676 312.136C109.2 311.772 108.962 311.268 108.962 310.624C108.962 309.98 109.163 309.476 109.564 309.112C109.965 308.748 110.577 308.487 111.398 308.328L113.876 307.838C113.876 307.306 113.755 306.909 113.512 306.648C113.269 306.377 112.91 306.242 112.434 306.242C112.005 306.242 111.664 306.345 111.412 306.55C111.169 306.746 111.001 307.031 110.908 307.404L109.088 307.32C109.237 306.527 109.601 305.92 110.18 305.5C110.759 305.071 111.51 304.856 112.434 304.856C113.498 304.856 114.301 305.127 114.842 305.668C115.393 306.2 115.668 306.965 115.668 307.964V310.68C115.668 310.876 115.701 311.011 115.766 311.086C115.841 311.161 115.948 311.198 116.088 311.198H116.326V312.5C116.27 312.519 116.177 312.533 116.046 312.542C115.925 312.551 115.799 312.556 115.668 312.556C115.36 312.556 115.085 312.509 114.842 312.416C114.599 312.313 114.413 312.141 114.282 311.898C114.151 311.646 114.086 311.305 114.086 310.876L114.24 310.988C114.165 311.315 114.002 311.609 113.75 311.87C113.507 312.122 113.199 312.318 112.826 312.458C112.453 312.598 112.033 312.668 111.566 312.668ZM111.93 311.366C112.331 311.366 112.677 311.287 112.966 311.128C113.255 310.969 113.479 310.75 113.638 310.47C113.797 310.19 113.876 309.859 113.876 309.476V309.056L111.944 309.448C111.543 309.532 111.253 309.658 111.076 309.826C110.908 309.985 110.824 310.195 110.824 310.456C110.824 310.745 110.917 310.969 111.104 311.128C111.3 311.287 111.575 311.366 111.93 311.366ZM123.552 314.614V311.114H125.344V314.614H123.552ZM122.18 312.5V311.114H123.832V312.5H122.18ZM117.49 305.024H119.282V311.114H122.166V305.024H123.972V312.5H117.49V305.024ZM127.183 312.5V305.024H128.975V309.854L131.691 305.024H133.455V312.5H131.663V307.796L129.031 312.5H127.183ZM135.414 312.5L137.192 309.448C136.706 309.233 136.328 308.949 136.058 308.594C135.787 308.239 135.652 307.824 135.652 307.348C135.652 306.592 135.922 306.018 136.464 305.626C137.014 305.225 137.812 305.024 138.858 305.024H142.036V312.5H140.244V309.728H138.9L137.318 312.5H135.414ZM138.858 308.412H140.244V306.34H138.858C138.419 306.34 138.078 306.433 137.836 306.62C137.602 306.797 137.486 307.049 137.486 307.376C137.486 307.712 137.602 307.969 137.836 308.146C138.078 308.323 138.419 308.412 138.858 308.412Z" fill="#404040"></path>
</g>
<g filter="url(#filter3_d_2247_2632)">
<path d="M21.667 350.333H38.3337M23.3337 346.167H36.667C37.5875 346.167 38.3337 346.913 38.3337 347.833V356.167C38.3337 357.087 37.5875 357.833 36.667 357.833H23.3337C22.4132 357.833 21.667 357.087 21.667 356.167V347.833C21.667 346.913 22.4132 346.167 23.3337 346.167Z" stroke="#404040" stroke-width="2" stroke-linecap="round" stroke-linejoin="round"></path>
<path d="M49.12 356.5V346.56H52.844C54.0573 346.56 54.9767 346.775 55.602 347.204C56.2367 347.633 56.554 348.315 56.554 349.248C56.554 349.668 56.4653 350.037 56.288 350.354C56.12 350.662 55.868 350.905 55.532 351.082C55.2053 351.259 54.8087 351.357 54.342 351.376L54.328 351.348C55.1773 351.376 55.8307 351.609 56.288 352.048C56.7453 352.477 56.974 353.051 56.974 353.77C56.974 354.685 56.6567 355.371 56.022 355.828C55.3967 356.276 54.5053 356.5 53.348 356.5H49.12ZM50.94 354.96H53.264C53.8333 354.96 54.2813 354.843 54.608 354.61C54.944 354.377 55.112 354.031 55.112 353.574C55.112 353.117 54.9487 352.767 54.622 352.524C54.2953 352.281 53.8427 352.16 53.264 352.16H50.94V354.96ZM50.94 350.732H52.788C53.3853 350.732 53.852 350.62 54.188 350.396C54.524 350.172 54.692 349.845 54.692 349.416C54.692 348.968 54.5287 348.637 54.202 348.422C53.8753 348.207 53.404 348.1 52.788 348.1H50.94V350.732ZM66.6417 356.5V349.024H68.4477V356.5H66.6417ZM58.5777 356.5V349.024H60.3697V351.74H62.0497C63.1603 351.74 64.005 351.945 64.5837 352.356C65.1623 352.767 65.4517 353.364 65.4517 354.148C65.4517 354.913 65.1623 355.497 64.5837 355.898C64.005 356.299 63.1603 356.5 62.0497 356.5H58.5777ZM60.3697 355.184H61.9237C62.4837 355.184 62.9037 355.1 63.1837 354.932C63.4637 354.755 63.6037 354.493 63.6037 354.148C63.6037 353.784 63.4637 353.518 63.1837 353.35C62.9037 353.173 62.4837 353.084 61.9237 353.084H60.3697V355.184ZM70.4038 356.5V349.024H73.7078C74.7065 349.024 75.4718 349.206 76.0038 349.57C76.5452 349.925 76.8158 350.433 76.8158 351.096C76.8158 351.563 76.6478 351.931 76.3118 352.202C75.9852 352.473 75.5232 352.622 74.9258 352.65V352.622C75.6165 352.65 76.1532 352.818 76.5358 353.126C76.9278 353.434 77.1238 353.854 77.1238 354.386C77.1238 355.049 76.8625 355.567 76.3398 355.94C75.8265 356.313 75.0892 356.5 74.1278 356.5H70.4038ZM72.2238 355.156H74.0298C74.4125 355.156 74.7158 355.077 74.9398 354.918C75.1638 354.75 75.2758 354.531 75.2758 354.26C75.2758 353.961 75.1638 353.728 74.9398 353.56C74.7158 353.383 74.4125 353.294 74.0298 353.294H72.2238V355.156ZM72.2238 352.118H73.6798C74.0718 352.118 74.3845 352.039 74.6178 351.88C74.8512 351.712 74.9678 351.493 74.9678 351.222C74.9678 350.961 74.8512 350.755 74.6178 350.606C74.3845 350.447 74.0718 350.368 73.6798 350.368H72.2238V352.118ZM82.06 356.668C81.3227 356.668 80.674 356.509 80.114 356.192C79.5634 355.865 79.134 355.408 78.826 354.82C78.5274 354.232 78.378 353.546 78.378 352.762C78.378 351.969 78.5274 351.283 78.826 350.704C79.134 350.116 79.5634 349.663 80.114 349.346C80.674 349.019 81.3227 348.856 82.06 348.856C82.7974 348.856 83.4414 349.019 83.992 349.346C84.5427 349.663 84.9674 350.116 85.266 350.704C85.574 351.283 85.728 351.969 85.728 352.762C85.728 353.546 85.574 354.232 85.266 354.82C84.9674 355.408 84.5427 355.865 83.992 356.192C83.4414 356.509 82.7974 356.668 82.06 356.668ZM82.06 355.212C82.6387 355.212 83.082 354.997 83.39 354.568C83.7074 354.139 83.866 353.537 83.866 352.762C83.866 351.997 83.7074 351.399 83.39 350.97C83.082 350.531 82.6387 350.312 82.06 350.312C81.4814 350.312 81.0334 350.531 80.716 350.97C80.3987 351.399 80.24 351.997 80.24 352.762C80.24 353.537 80.3987 354.139 80.716 354.568C81.0334 354.997 81.4814 355.212 82.06 355.212ZM86.6489 356.052V355.114H87.2369C87.5262 355.114 87.7502 355.007 87.9089 354.792C88.0769 354.577 88.1935 354.237 88.2589 353.77L88.9309 349.024H94.5449V356.5H92.7389V350.41H90.4149L89.9389 353.854C89.8455 354.61 89.6075 355.165 89.2249 355.52C88.8422 355.875 88.3102 356.052 87.6289 356.052H86.6489ZM86.6489 358.6V355.548H88.4409V358.6H86.6489ZM86.7329 356.5V355.114H95.0349V356.5H86.7329ZM93.9429 358.6V355.114H95.7489V358.6H93.9429ZM103.798 356.668C103.052 356.668 102.403 356.509 101.852 356.192C101.302 355.865 100.872 355.408 100.564 354.82C100.266 354.232 100.116 353.546 100.116 352.762C100.116 351.978 100.266 351.297 100.564 350.718C100.872 350.13 101.302 349.673 101.852 349.346C102.403 349.019 103.052 348.856 103.798 348.856C104.433 348.856 104.998 348.968 105.492 349.192C105.987 349.416 106.388 349.738 106.696 350.158C107.014 350.569 107.21 351.073 107.284 351.67L105.436 351.768C105.362 351.292 105.175 350.933 104.876 350.69C104.587 350.438 104.228 350.312 103.798 350.312C103.22 350.312 102.772 350.531 102.454 350.97C102.137 351.399 101.978 351.997 101.978 352.762C101.978 353.537 102.137 354.139 102.454 354.568C102.772 354.997 103.22 355.212 103.798 355.212C104.237 355.212 104.601 355.086 104.89 354.834C105.189 354.582 105.371 354.19 105.436 353.658L107.284 353.742C107.21 354.339 107.018 354.857 106.71 355.296C106.402 355.735 106.001 356.075 105.506 356.318C105.012 356.551 104.442 356.668 103.798 356.668ZM108.535 358.6V349.024H110.257L110.299 350.62L110.117 350.536C110.303 349.985 110.607 349.57 111.027 349.29C111.456 349.001 111.955 348.856 112.525 348.856C113.234 348.856 113.822 349.033 114.289 349.388C114.765 349.743 115.119 350.214 115.353 350.802C115.586 351.39 115.703 352.043 115.703 352.762C115.703 353.481 115.581 354.134 115.339 354.722C115.105 355.31 114.751 355.781 114.275 356.136C113.808 356.491 113.22 356.668 112.511 356.668C112.137 356.668 111.787 356.603 111.461 356.472C111.143 356.341 110.868 356.155 110.635 355.912C110.411 355.669 110.252 355.385 110.159 355.058L110.327 354.918V358.6H108.535ZM112.091 355.212C112.632 355.212 113.057 354.997 113.365 354.568C113.682 354.129 113.841 353.527 113.841 352.762C113.841 351.997 113.682 351.399 113.365 350.97C113.057 350.531 112.632 350.312 112.091 350.312C111.727 350.312 111.414 350.405 111.153 350.592C110.891 350.769 110.686 351.04 110.537 351.404C110.397 351.768 110.327 352.221 110.327 352.762C110.327 353.303 110.397 353.756 110.537 354.12C110.677 354.484 110.877 354.759 111.139 354.946C111.409 355.123 111.727 355.212 112.091 355.212ZM120.327 356.668C119.581 356.668 118.932 356.509 118.381 356.192C117.831 355.865 117.406 355.408 117.107 354.82C116.809 354.232 116.659 353.546 116.659 352.762C116.659 351.978 116.809 351.297 117.107 350.718C117.406 350.13 117.826 349.673 118.367 349.346C118.918 349.019 119.557 348.856 120.285 348.856C120.995 348.856 121.615 349.015 122.147 349.332C122.689 349.649 123.104 350.107 123.393 350.704C123.683 351.301 123.827 352.02 123.827 352.86V353.266H118.521C118.559 353.919 118.736 354.414 119.053 354.75C119.38 355.077 119.809 355.24 120.341 355.24C120.743 355.24 121.074 355.151 121.335 354.974C121.606 354.787 121.793 354.531 121.895 354.204L123.729 354.316C123.524 355.044 123.118 355.618 122.511 356.038C121.914 356.458 121.186 356.668 120.327 356.668ZM118.521 352.062H121.979C121.942 351.455 121.769 351.007 121.461 350.718C121.153 350.419 120.761 350.27 120.285 350.27C119.809 350.27 119.413 350.424 119.095 350.732C118.787 351.04 118.596 351.483 118.521 352.062ZM124.766 356.052V355.114H125.354C125.643 355.114 125.867 355.007 126.026 354.792C126.194 354.577 126.311 354.237 126.376 353.77L127.048 349.024H132.662V356.5H130.856V350.41H128.532L128.056 353.854C127.963 354.61 127.725 355.165 127.342 355.52C126.959 355.875 126.427 356.052 125.746 356.052H124.766ZM124.766 358.6V355.548H126.558V358.6H124.766ZM124.85 356.5V355.114H133.152V356.5H124.85ZM132.06 358.6V355.114H133.866V358.6H132.06ZM138.47 356.668C137.724 356.668 137.075 356.509 136.524 356.192C135.974 355.865 135.544 355.408 135.236 354.82C134.938 354.232 134.788 353.546 134.788 352.762C134.788 351.978 134.938 351.297 135.236 350.718C135.544 350.13 135.974 349.673 136.524 349.346C137.075 349.019 137.724 348.856 138.47 348.856C139.105 348.856 139.67 348.968 140.164 349.192C140.659 349.416 141.06 349.738 141.368 350.158C141.686 350.569 141.882 351.073 141.956 351.67L140.108 351.768C140.034 351.292 139.847 350.933 139.548 350.69C139.259 350.438 138.9 350.312 138.47 350.312C137.892 350.312 137.444 350.531 137.126 350.97C136.809 351.399 136.65 351.997 136.65 352.762C136.65 353.537 136.809 354.139 137.126 354.568C137.444 354.997 137.892 355.212 138.47 355.212C138.909 355.212 139.273 355.086 139.562 354.834C139.861 354.582 140.043 354.19 140.108 353.658L141.956 353.742C141.882 354.339 141.69 354.857 141.382 355.296C141.074 355.735 140.673 356.075 140.178 356.318C139.684 356.551 139.114 356.668 138.47 356.668ZM145.117 356.5V350.41H142.541V349.024H149.499V350.41H146.923V356.5H145.117ZM150.576 356.5V349.024H153.88C154.878 349.024 155.644 349.206 156.176 349.57C156.717 349.925 156.988 350.433 156.988 351.096C156.988 351.563 156.82 351.931 156.484 352.202C156.157 352.473 155.695 352.622 155.098 352.65V352.622C155.788 352.65 156.325 352.818 156.708 353.126C157.1 353.434 157.296 353.854 157.296 354.386C157.296 355.049 157.034 355.567 156.512 355.94C155.998 356.313 155.261 356.5 154.3 356.5H150.576ZM152.396 355.156H154.202C154.584 355.156 154.888 355.077 155.112 354.918C155.336 354.75 155.448 354.531 155.448 354.26C155.448 353.961 155.336 353.728 155.112 353.56C154.888 353.383 154.584 353.294 154.202 353.294H152.396V355.156ZM152.396 352.118H153.852C154.244 352.118 154.556 352.039 154.79 351.88C155.023 351.712 155.14 351.493 155.14 351.222C155.14 350.961 155.023 350.755 154.79 350.606C154.556 350.447 154.244 350.368 153.852 350.368H152.396V352.118Z" fill="#404040"></path>
</g>
<g filter="url(#filter4_d_2247_2632)">
<path d="M30.833 399.333H26.6663M31.6663 392.667H26.6663M33.333 396H26.6663M23.333 388.5C23.333 388.279 23.4208 388.067 23.5771 387.911C23.7334 387.754 23.9453 387.667 24.1663 387.667C24.3727 387.666 24.5751 387.723 24.7497 387.833L25.5272 388.333C25.7014 388.445 25.9038 388.504 26.1105 388.504C26.3172 388.504 26.5196 388.445 26.6938 388.333L27.4722 387.833C27.6464 387.722 27.8488 387.663 28.0555 387.663C28.2622 387.663 28.4646 387.722 28.6388 387.833L29.4163 388.333C29.5905 388.445 29.7929 388.504 29.9997 388.504C30.2064 388.504 30.4088 388.445 30.583 388.333L31.3605 387.833C31.5347 387.722 31.7371 387.663 31.9438 387.663C32.1506 387.663 32.353 387.722 32.5272 387.833L33.3055 388.333C33.4797 388.445 33.6821 388.504 33.8888 388.504C34.0956 388.504 34.298 388.445 34.4722 388.333L35.2497 387.833C35.4243 387.723 35.6267 387.666 35.833 387.667C36.054 387.667 36.266 387.754 36.4223 387.911C36.5785 388.067 36.6663 388.279 36.6663 388.5V403.5C36.6663 403.721 36.5785 403.933 36.4223 404.089C36.266 404.246 36.054 404.333 35.833 404.333C35.6267 404.334 35.4243 404.277 35.2497 404.167L34.4722 403.667C34.298 403.555 34.0956 403.496 33.8888 403.496C33.6821 403.496 33.4797 403.555 33.3055 403.667L32.5272 404.167C32.353 404.278 32.1506 404.337 31.9438 404.337C31.7371 404.337 31.5347 404.278 31.3605 404.167L30.583 403.667C30.4088 403.555 30.2064 403.496 29.9997 403.496C29.7929 403.496 29.5905 403.555 29.4163 403.667L28.6388 404.167C28.4646 404.278 28.2622 404.337 28.0555 404.337C27.8488 404.337 27.6464 404.278 27.4722 404.167L26.6938 403.667C26.5196 403.555 26.3172 403.496 26.1105 403.496C25.9038 403.496 25.7014 403.555 25.5272 403.667L24.7497 404.167C24.5751 404.277 24.3727 404.334 24.1663 404.333C23.9453 404.333 23.7334 404.246 23.5771 404.089C23.4208 403.933 23.333 403.721 23.333 403.5V388.5Z" stroke="#404040" stroke-width="2" stroke-linecap="round" stroke-linejoin="round"></path>
<path d="M51.024 400.5V392.142H48V390.56H55.854V392.142H52.844V400.5H51.024ZM56.773 402.6V393.024H58.495L58.537 394.62L58.355 394.536C58.5416 393.985 58.845 393.57 59.265 393.29C59.6943 393.001 60.1936 392.856 60.763 392.856C61.4723 392.856 62.0603 393.033 62.527 393.388C63.003 393.743 63.3576 394.214 63.591 394.802C63.8243 395.39 63.941 396.043 63.941 396.762C63.941 397.481 63.8196 398.134 63.577 398.722C63.3436 399.31 62.989 399.781 62.513 400.136C62.0463 400.491 61.4583 400.668 60.749 400.668C60.3756 400.668 60.0256 400.603 59.699 400.472C59.3816 400.341 59.1063 400.155 58.873 399.912C58.649 399.669 58.4903 399.385 58.397 399.058L58.565 398.918V402.6H56.773ZM60.329 399.212C60.8703 399.212 61.295 398.997 61.603 398.568C61.9203 398.129 62.079 397.527 62.079 396.762C62.079 395.997 61.9203 395.399 61.603 394.97C61.295 394.531 60.8703 394.312 60.329 394.312C59.965 394.312 59.6523 394.405 59.391 394.592C59.1296 394.769 58.9243 395.04 58.775 395.404C58.635 395.768 58.565 396.221 58.565 396.762C58.565 397.303 58.635 397.756 58.775 398.12C58.915 398.484 59.1156 398.759 59.377 398.946C59.6476 399.123 59.965 399.212 60.329 399.212ZM67.6109 400.668C66.8269 400.668 66.1969 400.491 65.7209 400.136C65.2449 399.772 65.0069 399.268 65.0069 398.624C65.0069 397.98 65.2076 397.476 65.6089 397.112C66.0103 396.748 66.6216 396.487 67.4429 396.328L69.9209 395.838C69.9209 395.306 69.7996 394.909 69.5569 394.648C69.3143 394.377 68.9549 394.242 68.4789 394.242C68.0496 394.242 67.7089 394.345 67.4569 394.55C67.2143 394.746 67.0463 395.031 66.9529 395.404L65.1329 395.32C65.2823 394.527 65.6463 393.92 66.2249 393.5C66.8036 393.071 67.5549 392.856 68.4789 392.856C69.5429 392.856 70.3456 393.127 70.8869 393.668C71.4376 394.2 71.7129 394.965 71.7129 395.964V398.68C71.7129 398.876 71.7456 399.011 71.8109 399.086C71.8856 399.161 71.9929 399.198 72.1329 399.198H72.3709V400.5C72.3149 400.519 72.2216 400.533 72.0909 400.542C71.9696 400.551 71.8436 400.556 71.7129 400.556C71.4049 400.556 71.1296 400.509 70.8869 400.416C70.6443 400.313 70.4576 400.141 70.3269 399.898C70.1963 399.646 70.1309 399.305 70.1309 398.876L70.2849 398.988C70.2103 399.315 70.0469 399.609 69.7949 399.87C69.5523 400.122 69.2443 400.318 68.8709 400.458C68.4976 400.598 68.0776 400.668 67.6109 400.668ZM67.9749 399.366C68.3763 399.366 68.7216 399.287 69.0109 399.128C69.3003 398.969 69.5243 398.75 69.6829 398.47C69.8416 398.19 69.9209 397.859 69.9209 397.476V397.056L67.9889 397.448C67.5876 397.532 67.2983 397.658 67.1209 397.826C66.9529 397.985 66.8689 398.195 66.8689 398.456C66.8689 398.745 66.9623 398.969 67.1489 399.128C67.3449 399.287 67.6203 399.366 67.9749 399.366ZM73.5347 400.5V393.024H75.3267V400.5H73.5347ZM78.0847 400.5V393.024H79.8767V400.5H78.0847ZM74.0667 397.462V396.09H79.2327V397.462H74.0667ZM84.4825 400.668C83.8291 400.668 83.2551 400.57 82.7605 400.374C82.2658 400.178 81.8785 399.903 81.5985 399.548C81.3278 399.184 81.1785 398.755 81.1505 398.26L82.9985 398.204C83.0171 398.521 83.1571 398.778 83.4185 398.974C83.6891 399.161 84.0391 399.254 84.4685 399.254C84.9071 399.254 85.2571 399.17 85.5185 399.002C85.7891 398.825 85.9245 398.582 85.9245 398.274C85.9245 397.919 85.7938 397.644 85.5325 397.448C85.2805 397.243 84.9351 397.145 84.4965 397.154H83.8245V395.95H84.4965C84.8605 395.959 85.1451 395.875 85.3505 395.698C85.5651 395.521 85.6725 395.278 85.6725 394.97C85.6725 394.69 85.5605 394.471 85.3365 394.312C85.1218 394.153 84.8278 394.074 84.4545 394.074C84.1091 394.074 83.8291 394.153 83.6145 394.312C83.4091 394.461 83.2925 394.676 83.2645 394.956L81.4165 394.886C81.4911 394.251 81.8038 393.757 82.3545 393.402C82.9051 393.038 83.6145 392.856 84.4825 392.856C85.4158 392.856 86.1531 393.043 86.6945 393.416C87.2451 393.789 87.5205 394.303 87.5205 394.956C87.5205 395.376 87.3338 395.731 86.9605 396.02C86.5871 396.3 86.0738 396.487 85.4205 396.58L85.4345 396.398C86.1625 396.491 86.7318 396.725 87.1425 397.098C87.5531 397.462 87.7585 397.919 87.7585 398.47C87.7585 399.142 87.4645 399.679 86.8765 400.08C86.2885 400.472 85.4905 400.668 84.4825 400.668ZM91.6051 400.668C90.8211 400.668 90.1911 400.491 89.7151 400.136C89.2391 399.772 89.0011 399.268 89.0011 398.624C89.0011 397.98 89.2017 397.476 89.6031 397.112C90.0044 396.748 90.6157 396.487 91.4371 396.328L93.9151 395.838C93.9151 395.306 93.7937 394.909 93.5511 394.648C93.3084 394.377 92.9491 394.242 92.4731 394.242C92.0437 394.242 91.7031 394.345 91.4511 394.55C91.2084 394.746 91.0404 395.031 90.9471 395.404L89.1271 395.32C89.2764 394.527 89.6404 393.92 90.2191 393.5C90.7977 393.071 91.5491 392.856 92.4731 392.856C93.5371 392.856 94.3397 393.127 94.8811 393.668C95.4317 394.2 95.7071 394.965 95.7071 395.964V398.68C95.7071 398.876 95.7397 399.011 95.8051 399.086C95.8797 399.161 95.9871 399.198 96.1271 399.198H96.3651V400.5C96.3091 400.519 96.2157 400.533 96.0851 400.542C95.9637 400.551 95.8377 400.556 95.7071 400.556C95.3991 400.556 95.1237 400.509 94.8811 400.416C94.6384 400.313 94.4517 400.141 94.3211 399.898C94.1904 399.646 94.1251 399.305 94.1251 398.876L94.2791 398.988C94.2044 399.315 94.0411 399.609 93.7891 399.87C93.5464 400.122 93.2384 400.318 92.8651 400.458C92.4917 400.598 92.0717 400.668 91.6051 400.668ZM91.9691 399.366C92.3704 399.366 92.7157 399.287 93.0051 399.128C93.2944 398.969 93.5184 398.75 93.6771 398.47C93.8357 398.19 93.9151 397.859 93.9151 397.476V397.056L91.9831 397.448C91.5817 397.532 91.2924 397.658 91.1151 397.826C90.9471 397.985 90.8631 398.195 90.8631 398.456C90.8631 398.745 90.9564 398.969 91.1431 399.128C91.3391 399.287 91.6144 399.366 91.9691 399.366ZM102.513 400.5L99.2368 396.762H101.379L104.739 400.5H102.513ZM97.5288 400.5V393.024H99.3488V400.5H97.5288ZM99.2368 396.762L102.373 393.024H104.571L101.379 396.762H99.2368ZM111.849 402.614V399.114H113.641V402.614H111.849ZM110.477 400.5V399.114H112.129V400.5H110.477ZM105.787 393.024H107.579V399.114H110.463V393.024H112.269V400.5H105.787V393.024ZM115.48 400.5V393.024H117.272V397.854L119.988 393.024H121.752V400.5H119.96V395.796L117.328 400.5H115.48ZM123.71 400.5V393.024H125.502V397.854L128.218 393.024H129.982V400.5H128.19V395.796L125.558 400.5H123.71Z" fill="#404040"></path>
</g>
<mask id="path-22-inside-1_2247_2632" fill="white">
<path d="M8 420H214V468H8V420Z"></path>
</mask>
<path d="M8 420V421H214V420V419H8V420Z" fill="#E2E2E2" mask="url(#path-22-inside-1_2247_2632)"></path>
<g filter="url(#filter5_d_2247_2632)">
<path d="M33.3333 439.833L37.5 444L33.3333 448.167M37.5 444H27.5M27.5 451.5H24.1667C23.7246 451.5 23.3007 451.324 22.9882 451.012C22.6756 450.699 22.5 450.275 22.5 449.833V438.167C22.5 437.725 22.6756 437.301 22.9882 436.988C23.3007 436.676 23.7246 436.5 24.1667 436.5H27.5" stroke="#D8400C" stroke-width="2" stroke-linecap="round" stroke-linejoin="round"></path>
<path d="M49.12 448.5V438.56H52.844C54.0573 438.56 54.9767 438.775 55.602 439.204C56.2367 439.633 56.554 440.315 56.554 441.248C56.554 441.668 56.4653 442.037 56.288 442.354C56.12 442.662 55.868 442.905 55.532 443.082C55.2053 443.259 54.8087 443.357 54.342 443.376L54.328 443.348C55.1773 443.376 55.8307 443.609 56.288 444.048C56.7453 444.477 56.974 445.051 56.974 445.77C56.974 446.685 56.6567 447.371 56.022 447.828C55.3967 448.276 54.5053 448.5 53.348 448.5H49.12ZM50.94 446.96H53.264C53.8333 446.96 54.2813 446.843 54.608 446.61C54.944 446.377 55.112 446.031 55.112 445.574C55.112 445.117 54.9487 444.767 54.622 444.524C54.2953 444.281 53.8427 444.16 53.264 444.16H50.94V446.96ZM50.94 442.732H52.788C53.3853 442.732 53.852 442.62 54.188 442.396C54.524 442.172 54.692 441.845 54.692 441.416C54.692 440.968 54.5287 440.637 54.202 440.422C53.8753 440.207 53.404 440.1 52.788 440.1H50.94V442.732ZM66.6417 448.5V441.024H68.4477V448.5H66.6417ZM58.5777 448.5V441.024H60.3697V443.74H62.0497C63.1603 443.74 64.005 443.945 64.5837 444.356C65.1623 444.767 65.4517 445.364 65.4517 446.148C65.4517 446.913 65.1623 447.497 64.5837 447.898C64.005 448.299 63.1603 448.5 62.0497 448.5H58.5777ZM60.3697 447.184H61.9237C62.4837 447.184 62.9037 447.1 63.1837 446.932C63.4637 446.755 63.6037 446.493 63.6037 446.148C63.6037 445.784 63.4637 445.518 63.1837 445.35C62.9037 445.173 62.4837 445.084 61.9237 445.084H60.3697V447.184ZM70.4038 448.5V441.024H72.1958V445.854L74.9118 441.024H76.6758V448.5H74.8838V443.796L72.2518 448.5H70.4038ZM73.4978 440.17C72.8818 440.17 72.3825 439.997 71.9998 439.652C71.6172 439.297 71.4118 438.812 71.3838 438.196H72.4618C72.5085 438.513 72.6205 438.747 72.7978 438.896C72.9752 439.036 73.2085 439.106 73.4978 439.106C73.7965 439.106 74.0345 439.036 74.2118 438.896C74.3892 438.747 74.4965 438.513 74.5338 438.196H75.6118C75.5838 438.812 75.3832 439.297 75.0098 439.652C74.6365 439.997 74.1325 440.17 73.4978 440.17ZM80.4762 448.5V442.41H77.9002V441.024H84.8582V442.41H82.2822V448.5H80.4762ZM85.9351 448.5V441.024H87.7271V445.854L90.4431 441.024H92.2071V448.5H90.4151V443.796L87.7831 448.5H85.9351ZM97.4741 448.5V441.024H99.2661V445.854L101.982 441.024H103.746V448.5H101.954V443.796L99.3221 448.5H97.4741ZM108.34 448.668C107.687 448.668 107.113 448.57 106.618 448.374C106.123 448.178 105.736 447.903 105.456 447.548C105.185 447.184 105.036 446.755 105.008 446.26L106.856 446.204C106.875 446.521 107.015 446.778 107.276 446.974C107.547 447.161 107.897 447.254 108.326 447.254C108.765 447.254 109.115 447.17 109.376 447.002C109.647 446.825 109.782 446.582 109.782 446.274C109.782 445.919 109.651 445.644 109.39 445.448C109.138 445.243 108.793 445.145 108.354 445.154H107.682V443.95H108.354C108.718 443.959 109.003 443.875 109.208 443.698C109.423 443.521 109.53 443.278 109.53 442.97C109.53 442.69 109.418 442.471 109.194 442.312C108.979 442.153 108.685 442.074 108.312 442.074C107.967 442.074 107.687 442.153 107.472 442.312C107.267 442.461 107.15 442.676 107.122 442.956L105.274 442.886C105.349 442.251 105.661 441.757 106.212 441.402C106.763 441.038 107.472 440.856 108.34 440.856C109.273 440.856 110.011 441.043 110.552 441.416C111.103 441.789 111.378 442.303 111.378 442.956C111.378 443.376 111.191 443.731 110.818 444.02C110.445 444.3 109.931 444.487 109.278 444.58L109.292 444.398C110.02 444.491 110.589 444.725 111 445.098C111.411 445.462 111.616 445.919 111.616 446.47C111.616 447.142 111.322 447.679 110.734 448.08C110.146 448.472 109.348 448.668 108.34 448.668ZM118.798 448.668C118.014 448.668 117.384 448.491 116.908 448.136C116.432 447.772 116.194 447.268 116.194 446.624C116.194 445.98 116.395 445.476 116.796 445.112C117.198 444.748 117.809 444.487 118.63 444.328L121.108 443.838C121.108 443.306 120.987 442.909 120.744 442.648C120.502 442.377 120.142 442.242 119.666 442.242C119.237 442.242 118.896 442.345 118.644 442.55C118.402 442.746 118.234 443.031 118.14 443.404L116.32 443.32C116.47 442.527 116.834 441.92 117.412 441.5C117.991 441.071 118.742 440.856 119.666 440.856C120.73 440.856 121.533 441.127 122.074 441.668C122.625 442.2 122.9 442.965 122.9 443.964V446.68C122.9 446.876 122.933 447.011 122.998 447.086C123.073 447.161 123.18 447.198 123.32 447.198H123.558V448.5C123.502 448.519 123.409 448.533 123.278 448.542C123.157 448.551 123.031 448.556 122.9 448.556C122.592 448.556 122.317 448.509 122.074 448.416C121.832 448.313 121.645 448.141 121.514 447.898C121.384 447.646 121.318 447.305 121.318 446.876L121.472 446.988C121.398 447.315 121.234 447.609 120.982 447.87C120.74 448.122 120.432 448.318 120.058 448.458C119.685 448.598 119.265 448.668 118.798 448.668ZM119.162 447.366C119.564 447.366 119.909 447.287 120.198 447.128C120.488 446.969 120.712 446.75 120.87 446.47C121.029 446.19 121.108 445.859 121.108 445.476V445.056L119.176 445.448C118.775 445.532 118.486 445.658 118.308 445.826C118.14 445.985 118.056 446.195 118.056 446.456C118.056 446.745 118.15 446.969 118.336 447.128C118.532 447.287 118.808 447.366 119.162 447.366ZM129.706 448.5L126.43 444.762H128.572L131.932 448.5H129.706ZM124.722 448.5V441.024H126.542V448.5H124.722ZM126.43 444.762L129.566 441.024H131.764L128.572 444.762H126.43ZM137.964 448.5L134.688 444.762H136.83L140.19 448.5H137.964ZM132.98 448.5V441.024H134.8V448.5H132.98ZM134.688 444.762L137.824 441.024H140.022L136.83 444.762H134.688ZM143.271 448.668C142.487 448.668 141.857 448.491 141.381 448.136C140.905 447.772 140.667 447.268 140.667 446.624C140.667 445.98 140.868 445.476 141.269 445.112C141.67 444.748 142.282 444.487 143.103 444.328L145.581 443.838C145.581 443.306 145.46 442.909 145.217 442.648C144.974 442.377 144.615 442.242 144.139 442.242C143.71 442.242 143.369 442.345 143.117 442.55C142.874 442.746 142.706 443.031 142.613 443.404L140.793 443.32C140.942 442.527 141.306 441.92 141.885 441.5C142.464 441.071 143.215 440.856 144.139 440.856C145.203 440.856 146.006 441.127 146.547 441.668C147.098 442.2 147.373 442.965 147.373 443.964V446.68C147.373 446.876 147.406 447.011 147.471 447.086C147.546 447.161 147.653 447.198 147.793 447.198H148.031V448.5C147.975 448.519 147.882 448.533 147.751 448.542C147.63 448.551 147.504 448.556 147.373 448.556C147.065 448.556 146.79 448.509 146.547 448.416C146.304 448.313 146.118 448.141 145.987 447.898C145.856 447.646 145.791 447.305 145.791 446.876L145.945 446.988C145.87 447.315 145.707 447.609 145.455 447.87C145.212 448.122 144.904 448.318 144.531 448.458C144.158 448.598 143.738 448.668 143.271 448.668ZM143.635 447.366C144.036 447.366 144.382 447.287 144.671 447.128C144.96 446.969 145.184 446.75 145.343 446.47C145.502 446.19 145.581 445.859 145.581 445.476V445.056L143.649 445.448C143.248 445.532 142.958 445.658 142.781 445.826C142.613 445.985 142.529 446.195 142.529 446.456C142.529 446.745 142.622 446.969 142.809 447.128C143.005 447.287 143.28 447.366 143.635 447.366ZM149.317 450.6V449.214H150.269C150.511 449.214 150.689 449.177 150.801 449.102C150.922 449.027 151.015 448.901 151.081 448.724L151.291 448.206H150.773L148.099 441.024H149.961L151.837 446.526L153.629 441.024H155.491L152.565 449.284C152.397 449.751 152.159 450.087 151.851 450.292C151.552 450.497 151.132 450.6 150.591 450.6H149.317ZM156.455 448.5V441.024H158.247V448.5H156.455ZM161.005 448.5V441.024H162.797V448.5H161.005ZM156.987 445.462V444.09H162.153V445.462H156.987ZM166.609 448.5V442.41H164.033V441.024H170.991V442.41H168.415V448.5H166.609ZM174.183 448.668C173.399 448.668 172.769 448.491 172.293 448.136C171.817 447.772 171.579 447.268 171.579 446.624C171.579 445.98 171.78 445.476 172.181 445.112C172.583 444.748 173.194 444.487 174.015 444.328L176.493 443.838C176.493 443.306 176.372 442.909 176.129 442.648C175.887 442.377 175.527 442.242 175.051 442.242C174.622 442.242 174.281 442.345 174.029 442.55C173.787 442.746 173.619 443.031 173.525 443.404L171.705 443.32C171.855 442.527 172.219 441.92 172.797 441.5C173.376 441.071 174.127 440.856 175.051 440.856C176.115 440.856 176.918 441.127 177.459 441.668C178.01 442.2 178.285 442.965 178.285 443.964V446.68C178.285 446.876 178.318 447.011 178.383 447.086C178.458 447.161 178.565 447.198 178.705 447.198H178.943V448.5C178.887 448.519 178.794 448.533 178.663 448.542C178.542 448.551 178.416 448.556 178.285 448.556C177.977 448.556 177.702 448.509 177.459 448.416C177.217 448.313 177.03 448.141 176.899 447.898C176.769 447.646 176.703 447.305 176.703 446.876L176.857 446.988C176.783 447.315 176.619 447.609 176.367 447.87C176.125 448.122 175.817 448.318 175.443 448.458C175.07 448.598 174.65 448.668 174.183 448.668ZM174.547 447.366C174.949 447.366 175.294 447.287 175.583 447.128C175.873 446.969 176.097 446.75 176.255 446.47C176.414 446.19 176.493 445.859 176.493 445.476V445.056L174.561 445.448C174.16 445.532 173.871 445.658 173.693 445.826C173.525 445.985 173.441 446.195 173.441 446.456C173.441 446.745 173.535 446.969 173.721 447.128C173.917 447.287 174.193 447.366 174.547 447.366Z" fill="#D8400C"></path>
</g>
<defs>
<filter id="filter0_d_2247_2632" x="7" y="199" width="208" height="42" filterUnits="userSpaceOnUse" color-interpolation-filters="sRGB">
<feFlood flood-opacity="0" result="BackgroundImageFix"></feFlood>
<feColorMatrix in="SourceAlpha" type="matrix" values="0 0 0 0 0 0 0 0 0 0 0 0 0 0 0 0 0 0 127 0" result="hardAlpha"></feColorMatrix>
<feOffset></feOffset>
<feGaussianBlur stdDeviation="0.5"></feGaussianBlur>
<feComposite in2="hardAlpha" operator="out"></feComposite>
<feColorMatrix type="matrix" values="0 0 0 0 0 0 0 0 0 0 0 0 0 0 0 0 0 0 0.25 0"></feColorMatrix>
<feBlend mode="normal" in2="BackgroundImageFix" result="effect1_dropShadow_2247_2632"></feBlend>
<feBlend mode="normal" in="SourceGraphic" in2="effect1_dropShadow_2247_2632" result="shape"></feBlend>
</filter>
<filter id="filter1_d_2247_2632" x="7" y="243" width="208" height="42" filterUnits="userSpaceOnUse" color-interpolation-filters="sRGB">
<feFlood flood-opacity="0" result="BackgroundImageFix"></feFlood>
<feColorMatrix in="SourceAlpha" type="matrix" values="0 0 0 0 0 0 0 0 0 0 0 0 0 0 0 0 0 0 127 0" result="hardAlpha"></feColorMatrix>
<feOffset></feOffset>
<feGaussianBlur stdDeviation="0.5"></feGaussianBlur>
<feComposite in2="hardAlpha" operator="out"></feComposite>
<feColorMatrix type="matrix" values="0 0 0 0 0 0 0 0 0 0 0 0 0 0 0 0 0 0 0.25 0"></feColorMatrix>
<feBlend mode="normal" in2="BackgroundImageFix" result="effect1_dropShadow_2247_2632"></feBlend>
<feBlend mode="normal" in="SourceGraphic" in2="effect1_dropShadow_2247_2632" result="shape"></feBlend>
</filter>
<filter id="filter2_d_2247_2632" x="7" y="287" width="208" height="42" filterUnits="userSpaceOnUse" color-interpolation-filters="sRGB">
<feFlood flood-opacity="0" result="BackgroundImageFix"></feFlood>
<feColorMatrix in="SourceAlpha" type="matrix" values="0 0 0 0 0 0 0 0 0 0 0 0 0 0 0 0 0 0 127 0" result="hardAlpha"></feColorMatrix>
<feOffset></feOffset>
<feGaussianBlur stdDeviation="0.5"></feGaussianBlur>
<feComposite in2="hardAlpha" operator="out"></feComposite>
<feColorMatrix type="matrix" values="0 0 0 0 0 0 0 0 0 0 0 0 0 0 0 0 0 0 0.25 0"></feColorMatrix>
<feBlend mode="normal" in2="BackgroundImageFix" result="effect1_dropShadow_2247_2632"></feBlend>
<feBlend mode="normal" in="SourceGraphic" in2="effect1_dropShadow_2247_2632" result="shape"></feBlend>
</filter>
<filter id="filter3_d_2247_2632" x="7" y="331" width="208" height="42" filterUnits="userSpaceOnUse" color-interpolation-filters="sRGB">
<feFlood flood-opacity="0" result="BackgroundImageFix"></feFlood>
<feColorMatrix in="SourceAlpha" type="matrix" values="0 0 0 0 0 0 0 0 0 0 0 0 0 0 0 0 0 0 127 0" result="hardAlpha"></feColorMatrix>
<feOffset></feOffset>
<feGaussianBlur stdDeviation="0.5"></feGaussianBlur>
<feComposite in2="hardAlpha" operator="out"></feComposite>
<feColorMatrix type="matrix" values="0 0 0 0 0 0 0 0 0 0 0 0 0 0 0 0 0 0 0.25 0"></feColorMatrix>
<feBlend mode="normal" in2="BackgroundImageFix" result="effect1_dropShadow_2247_2632"></feBlend>
<feBlend mode="normal" in="SourceGraphic" in2="effect1_dropShadow_2247_2632" result="shape"></feBlend>
</filter>
<filter id="filter4_d_2247_2632" x="7" y="375" width="208" height="42" filterUnits="userSpaceOnUse" color-interpolation-filters="sRGB">
<feFlood flood-opacity="0" result="BackgroundImageFix"></feFlood>
<feColorMatrix in="SourceAlpha" type="matrix" values="0 0 0 0 0 0 0 0 0 0 0 0 0 0 0 0 0 0 127 0" result="hardAlpha"></feColorMatrix>
<feOffset></feOffset>
<feGaussianBlur stdDeviation="0.5"></feGaussianBlur>
<feComposite in2="hardAlpha" operator="out"></feComposite>
<feColorMatrix type="matrix" values="0 0 0 0 0 0 0 0 0 0 0 0 0 0 0 0 0 0 0.25 0"></feColorMatrix>
<feBlend mode="normal" in2="BackgroundImageFix" result="effect1_dropShadow_2247_2632"></feBlend>
<feBlend mode="normal" in="SourceGraphic" in2="effect1_dropShadow_2247_2632" result="shape"></feBlend>
</filter>
<filter id="filter5_d_2247_2632" x="7" y="423" width="208" height="42" filterUnits="userSpaceOnUse" color-interpolation-filters="sRGB">
<feFlood flood-opacity="0" result="BackgroundImageFix"></feFlood>
<feColorMatrix in="SourceAlpha" type="matrix" values="0 0 0 0 0 0 0 0 0 0 0 0 0 0 0 0 0 0 127 0" result="hardAlpha"></feColorMatrix>
<feOffset></feOffset>
<feGaussianBlur stdDeviation="0.5"></feGaussianBlur>
<feComposite in2="hardAlpha" operator="out"></feComposite>
<feColorMatrix type="matrix" values="0 0 0 0 0 0 0 0 0 0 0 0 0 0 0 0 0 0 0.25 0"></feColorMatrix>
<feBlend mode="normal" in2="BackgroundImageFix" result="effect1_dropShadow_2247_2632"></feBlend>
<feBlend mode="normal" in="SourceGraphic" in2="effect1_dropShadow_2247_2632" result="shape"></feBlend>
</filter>
<clipPath id="clip0_2247_2632">
<rect x="61" y="28" width="100" height="100" rx="26" fill="white"></rect>
</clipPath>
<clipPath id="clip1_2247_2632">
<rect width="20" height="20" fill="white" transform="translate(20 298)"></rect>
</clipPath>
</defs>
</svg>